<?xml version="1.0" encoding="UTF-8" standalone="no"?>
<!DOCTYPE svg PUBLIC "-//W3C//DTD SVG 1.1//EN"
 "http://www.w3.org/Graphics/SVG/1.1/DTD/svg11.dtd">
<!-- Generated by graphviz version 2.43.0 (0)
 -->
<!-- Title: G Pages: 1 -->
<svg width="193pt" height="176pt"
 viewBox="0.00 0.00 145.00 132.25" xmlns="http://www.w3.org/2000/svg" xmlns:xlink="http://www.w3.org/1999/xlink">
<g id="graph0" class="graph" transform="scale(0.75 0.75) rotate(0) translate(4 128.25)">
<title>G</title>
<polygon fill="white" stroke="transparent" points="-4,4 -4,-128.25 141,-128.25 141,4 -4,4"/>
<!-- Workflow_node_23 -->
<g id="node1" class="node">
<title>Workflow_node_23</title>
<g id="a_node1"><a xlink:href="http://www.google.fr/?q=test_rule" xlink:title="test_rule">
<polygon fill="none" stroke="grey" points="108.5,-36 28.5,-36 28.5,0 108.5,0 108.5,-36"/>
<text text-anchor="middle" x="68.5" y="-14.3" font-family="Times,serif" font-size="14.00">test_rule</text>
</a>
</g>
</g>
<!-- Workflow_node_20 -->
<g id="node2" class="node">
<title>Workflow_node_20</title>
<g id="a_node2"><a xlink:href="http://www.google.fr/?q=test_data_source" xlink:title="test_data_source\nsize : 2">
<path fill="none" stroke="grey" d="M137,-119.6C137,-122.24 106.3,-124.38 68.5,-124.38 30.7,-124.38 0,-122.24 0,-119.6 0,-119.6 0,-76.65 0,-76.65 0,-74.01 30.7,-71.87 68.5,-71.87 106.3,-71.87 137,-74.01 137,-76.65 137,-76.65 137,-119.6 137,-119.6"/>
<path fill="none" stroke="grey" d="M137,-119.6C137,-116.97 106.3,-114.83 68.5,-114.83 30.7,-114.83 0,-116.97 0,-119.6"/>
<text text-anchor="middle" x="68.5" y="-101.92" font-family="Times,serif" font-size="14.00">test_data_source</text>
<text text-anchor="middle" x="68.5" y="-86.92" font-family="Times,serif" font-size="14.00">size : 2</text>
</a>
</g>
</g>
<!-- Workflow_node_20&#45;&gt;Workflow_node_23 -->
<g id="edge1" class="edge">
<title>Workflow_node_20&#45;&gt;Workflow_node_23</title>
<path fill="none" stroke="black" d="M68.5,-71.98C68.5,-63.91 68.5,-54.94 68.5,-46.7"/>
<polygon fill="black" stroke="black" points="72,-46.44 68.5,-36.44 65,-46.44 72,-46.44"/>
</g>
</g>
</svg>
