<?xml version="1.0" encoding="UTF-8" standalone="no"?>
<!DOCTYPE svg PUBLIC "-//W3C//DTD SVG 1.1//EN"
 "http://www.w3.org/Graphics/SVG/1.1/DTD/svg11.dtd">
<!-- Generated by graphviz version 2.40.1 (20161225.0304)
 -->
<!-- Title: G Pages: 1 -->
<svg width="153pt" height="176pt"
 viewBox="0.00 0.00 115.00 132.25" xmlns="http://www.w3.org/2000/svg" xmlns:xlink="http://www.w3.org/1999/xlink">
<g id="graph0" class="graph" transform="rotate(0) translate(4 128.25)">
<title>G</title>
<polygon fill="#ffffff" stroke="transparent" points="-4,4 -4,-128.25 111,-128.25 111,4 -4,4"/>
<!-- Workflow_node_28 -->
<g id="node1" class="node">
<title>Workflow_node_28</title>
<g id="a_node1"><a xlink:href="http://www.google.fr/?q=test_rule" xlink:title="test_rule">
<polygon fill="none" stroke="#c0c0c0" points="85,-36 22,-36 22,0 85,0 85,-36"/>
<text text-anchor="middle" x="53.5" y="-14.3" font-family="Times,serif" font-size="14.00" fill="#000000">test_rule</text>
</a>
</g>
</g>
<!-- Workflow_node_16 -->
<g id="node2" class="node">
<title>Workflow_node_16</title>
<g id="a_node2"><a xlink:href="http://www.google.fr/?q=test_data_source" xlink:title="test_data_source\nsize : 2">
<path fill="none" stroke="#c0c0c0" d="M107,-119.6028C107,-122.2363 83.0204,-124.3756 53.5,-124.3756 23.9796,-124.3756 0,-122.2363 0,-119.6028 0,-119.6028 0,-76.6472 0,-76.6472 0,-74.0137 23.9796,-71.8744 53.5,-71.8744 83.0204,-71.8744 107,-74.0137 107,-76.6472 107,-76.6472 107,-119.6028 107,-119.6028"/>
<path fill="none" stroke="#c0c0c0" d="M107,-119.6028C107,-116.9692 83.0204,-114.8299 53.5,-114.8299 23.9796,-114.8299 0,-116.9692 0,-119.6028"/>
<text text-anchor="middle" x="53.5" y="-101.925" font-family="Times,serif" font-size="14.00" fill="#000000">test_data_source</text>
<text text-anchor="middle" x="53.5" y="-86.925" font-family="Times,serif" font-size="14.00" fill="#000000">size : 2</text>
</a>
</g>
</g>
<!-- Workflow_node_16&#45;&gt;Workflow_node_28 -->
<g id="edge1" class="edge">
<title>Workflow_node_16&#45;&gt;Workflow_node_28</title>
<path fill="none" stroke="#000000" d="M53.5,-71.8891C53.5,-63.6738 53.5,-54.5744 53.5,-46.2279"/>
<polygon fill="#000000" stroke="#000000" points="57.0001,-46.1816 53.5,-36.1816 50.0001,-46.1816 57.0001,-46.1816"/>
</g>
</g>
</svg>
